<svg version="1.1" id="Layer_1" xmlns="http://www.w3.org/2000/svg" xmlns:xlink="http://www.w3.org/1999/xlink" x="0px" y="0px"
	 width="100%" viewBox="0 0 256 256" enable-background="new 0 0 256 256" xml:space="preserve">
<path fill="#000000" opacity="1.000000" stroke="none" 
	d="
M157.000000,257.000000 
	C104.666672,257.000000 52.833340,257.000000 1.000007,257.000000 
	C1.000005,171.666672 1.000005,86.333351 1.000002,1.000018 
	C86.333321,1.000012 171.666641,1.000012 257.000000,1.000006 
	C257.000000,86.333313 257.000000,171.666626 257.000000,256.999969 
	C223.833328,257.000000 190.666672,257.000000 157.000000,257.000000 
M89.899017,134.697693 
	C89.441643,132.893524 88.984268,131.089340 88.454308,128.998840 
	C95.297707,128.998840 101.623070,129.019775 107.948227,128.992355 
	C113.213806,128.969528 114.985786,127.183548 114.990616,121.809036 
	C115.009949,100.314110 115.009811,78.819153 114.991333,57.324226 
	C114.986221,51.379147 113.638634,50.012356 107.748177,50.008274 
	C81.254425,49.989929 54.760094,50.088634 28.267393,49.920635 
	C23.363472,49.889542 21.902306,51.854076 21.943493,56.441914 
	C22.090084,72.770088 21.792522,89.104309 22.100744,105.427971 
	C22.227266,112.128845 22.765009,118.977257 24.323032,125.468781 
	C30.906691,152.899643 45.593723,174.985443 69.057106,190.977402 
	C81.252197,199.289230 94.656319,204.593185 109.207428,207.015991 
	C117.198555,208.346527 117.149147,208.325974 120.312744,200.374710 
	C122.129082,195.809586 124.090599,191.300232 126.072723,186.803665 
	C127.859619,182.749954 127.405350,179.892593 123.099159,177.408768 
	C118.038994,174.490051 113.169495,171.039276 108.803818,167.159302 
	C99.236221,158.656174 93.714203,147.567505 89.899017,134.697693 
M223.999725,97.500000 
	C223.999619,84.172417 224.014618,70.844810 223.992813,57.517265 
	C223.982422,51.166996 222.826126,50.009655 216.480438,50.005936 
	C191.824493,49.991482 167.168457,50.042526 142.512665,49.981796 
	C130.195343,49.951458 130.674118,49.361744 131.048462,61.693344 
	C131.671631,82.223129 129.043427,102.869194 133.011139,123.278122 
	C138.368744,150.836182 152.889053,172.547806 175.370499,189.108627 
	C188.926941,199.094894 204.267197,204.788132 220.681168,207.882492 
	C224.359421,208.575912 226.679016,206.947540 228.002029,203.595184 
	C230.338425,197.674957 232.513367,191.682297 235.094376,185.870270 
	C236.920013,181.759262 235.450653,179.330765 231.922836,177.450302 
	C212.500076,167.097382 201.945450,150.395706 196.996475,128.998047 
	C203.798447,128.998047 210.115326,129.048721 216.430969,128.982590 
	C221.834488,128.926041 223.931122,126.860847 223.980667,121.489830 
	C224.051346,113.827148 223.999329,106.163330 223.999725,97.500000 
z"/>
<path fill="#DB2411" opacity="1.000000" stroke="none" 
	d="
M89.950340,135.094727 
	C93.714203,147.567505 99.236221,158.656174 108.803818,167.159302 
	C113.169495,171.039276 118.038994,174.490051 123.099159,177.408768 
	C127.405350,179.892593 127.859619,182.749954 126.072723,186.803665 
	C124.090599,191.300232 122.129082,195.809586 120.312744,200.374710 
	C117.149147,208.325974 117.198555,208.346527 109.207428,207.015991 
	C94.656319,204.593185 81.252197,199.289230 69.057106,190.977402 
	C45.593723,174.985443 30.906691,152.899643 24.323032,125.468781 
	C22.765009,118.977257 22.227266,112.128845 22.100744,105.427971 
	C21.792522,89.104309 22.090084,72.770088 21.943493,56.441914 
	C21.902306,51.854076 23.363472,49.889542 28.267393,49.920635 
	C54.760094,50.088634 81.254425,49.989929 107.748177,50.008274 
	C113.638634,50.012356 114.986221,51.379147 114.991333,57.324226 
	C115.009811,78.819153 115.009949,100.314110 114.990616,121.809036 
	C114.985786,127.183548 113.213806,128.969528 107.948227,128.992355 
	C101.623070,129.019775 95.297707,128.998840 88.454308,128.998840 
	C88.984268,131.089340 89.441643,132.893524 89.950340,135.094727 
M110.154289,197.905914 
	C112.084358,194.201355 114.217018,190.579346 115.786316,186.727783 
	C116.131020,185.881775 114.792389,183.742599 113.689728,183.004288 
	C93.869141,169.733002 82.194046,151.403320 78.983994,127.732590 
	C78.027122,120.676590 79.479607,119.016304 86.635796,118.996445 
	C92.919365,118.979004 99.203011,118.992798 105.660095,118.992798 
	C105.660095,98.769264 105.660095,79.068115 105.660095,59.412868 
	C80.617691,59.412868 55.917282,59.412868 30.063505,59.412868 
	C31.051741,79.873047 30.508018,100.090561 33.355595,119.818573 
	C37.144112,146.065445 51.559628,166.739410 73.317749,182.118484 
	C84.264572,189.855942 96.369888,194.885544 110.154289,197.905914 
z"/>
<path fill="#DB2411" opacity="1.000000" stroke="none" 
	d="
M223.999725,98.000000 
	C223.999329,106.163330 224.051346,113.827148 223.980667,121.489830 
	C223.931122,126.860847 221.834488,128.926041 216.430969,128.982590 
	C210.115326,129.048721 203.798447,128.998047 196.996475,128.998047 
	C201.945450,150.395706 212.500076,167.097382 231.922836,177.450302 
	C235.450653,179.330765 236.920013,181.759262 235.094376,185.870270 
	C232.513367,191.682297 230.338425,197.674957 228.002029,203.595184 
	C226.679016,206.947540 224.359421,208.575912 220.681168,207.882492 
	C204.267197,204.788132 188.926941,199.094894 175.370499,189.108627 
	C152.889053,172.547806 138.368744,150.836182 133.011139,123.278122 
	C129.043427,102.869194 131.671631,82.223129 131.048462,61.693344 
	C130.674118,49.361744 130.195343,49.951458 142.512665,49.981796 
	C167.168457,50.042526 191.824493,49.991482 216.480438,50.005936 
	C222.826126,50.009655 223.982422,51.166996 223.992813,57.517265 
	C224.014618,70.844810 223.999619,84.172417 223.999725,98.000000 
M212.972290,59.010517 
	C188.733276,59.010517 164.494247,59.010517 139.999695,59.010517 
	C139.999695,74.263329 139.971924,88.743225 140.007492,103.222954 
	C140.043167,117.735992 143.471252,131.488907 149.865555,144.452347 
	C156.097961,157.087555 164.476242,167.999191 175.427353,177.116455 
	C185.958496,185.884079 197.641464,192.194321 210.680283,195.891205 
	C219.618195,198.425369 219.336090,197.841415 223.489029,189.305557 
	C225.395325,185.387451 224.240891,183.863663 221.284866,182.049271 
	C213.356216,177.182678 206.939972,170.769089 201.542099,163.182846 
	C193.970108,152.541122 189.882309,140.612167 187.413910,127.940414 
	C186.273270,122.084801 188.316269,119.110680 194.400040,119.013809 
	C200.895386,118.910393 207.393204,118.962387 214.260269,118.216362 
	C214.499191,116.916557 214.942337,115.617340 214.946091,114.316856 
	C214.994659,97.499435 215.010117,80.681709 214.935181,63.864491 
	C214.928040,62.258991 214.257996,60.656437 212.972290,59.010517 
z"/>
<path fill="#000000" opacity="1.000000" stroke="none" 
	d="
M109.753204,197.930679 
	C96.369888,194.885544 84.264572,189.855942 73.317749,182.118484 
	C51.559628,166.739410 37.144112,146.065445 33.355595,119.818573 
	C30.508018,100.090561 31.051741,79.873047 30.063505,59.412868 
	C55.917282,59.412868 80.617691,59.412868 105.660095,59.412868 
	C105.660095,79.068115 105.660095,98.769264 105.660095,118.992798 
	C99.203011,118.992798 92.919365,118.979004 86.635796,118.996445 
	C79.479607,119.016304 78.027122,120.676590 78.983994,127.732590 
	C82.194046,151.403320 93.869141,169.733002 113.689728,183.004288 
	C114.792389,183.742599 116.131020,185.881775 115.786316,186.727783 
	C114.217018,190.579346 112.084358,194.201355 109.753204,197.930679 
z"/>
<path fill="#000000" opacity="1.000000" stroke="none" 
	d="
M213.889954,118.946533 
	C207.393204,118.962387 200.895386,118.910393 194.400040,119.013809 
	C188.316269,119.110680 186.273270,122.084801 187.413910,127.940414 
	C189.882309,140.612167 193.970108,152.541122 201.542099,163.182846 
	C206.939972,170.769089 213.356216,177.182678 221.284866,182.049271 
	C224.240891,183.863663 225.395325,185.387451 223.489029,189.305557 
	C219.336090,197.841415 219.618195,198.425369 210.680283,195.891205 
	C197.641464,192.194321 185.958496,185.884079 175.427353,177.116455 
	C164.476242,167.999191 156.097961,157.087555 149.865555,144.452347 
	C143.471252,131.488907 140.043167,117.735992 140.007492,103.222954 
	C139.971924,88.743225 139.999695,74.263329 139.999695,59.010517 
	C164.494247,59.010517 188.733276,59.010517 213.475250,59.494293 
	C213.948807,79.634224 213.919373,99.290382 213.889954,118.946533 
z"/>
<path fill="#DB2400" opacity="1.000000" stroke="none" 
	d="
M214.075104,118.581451 
	C213.919373,99.290382 213.948807,79.634224 213.936966,59.515289 
	C214.257996,60.656437 214.928040,62.258991 214.935181,63.864491 
	C215.010117,80.681709 214.994659,97.499435 214.946091,114.316856 
	C214.942337,115.617340 214.499191,116.916557 214.075104,118.581451 
z"/>
</svg>